<?xml version="1.0" encoding="UTF-8"?>
<svg version="1.1" xmlns="http://www.w3.org/2000/svg" width="253" height="304">
<path d="M0 0 C1.27875 -0.061875 2.5575 -0.12375 3.875 -0.1875 C4.95394531 -0.23970703 4.95394531 -0.23970703 6.0546875 -0.29296875 C6.69664063 -0.19628906 7.33859375 -0.09960938 8 0 C10.20204976 3.30307464 10.2482028 4.27090455 10.24050903 8.10624695 C10.24326403 9.15994571 10.24601902 10.21364447 10.2488575 11.29927349 C10.24166128 12.45952447 10.23446507 13.61977545 10.22705078 14.81518555 C10.22729185 16.05457036 10.22753292 17.29395517 10.2277813 18.5708971 C10.22653382 21.92517197 10.21663686 25.27920008 10.20256042 28.63343048 C10.19117525 31.78023387 10.19063444 34.927031 10.18920898 38.07385254 C10.17871201 47.27842059 10.15078973 56.48296209 10.125 65.6875 C10.08375 86.250625 10.0425 106.81375 10 128 C58.18 128 106.36 128 156 128 C155.8811835 86.99737769 155.8811835 86.99737769 155.72973633 45.99487305 C155.71618652 38.07385254 155.71618652 38.07385254 155.71366882 34.3684845 C155.70905459 31.77427671 155.69960315 29.18050302 155.68327332 26.58638 C155.65889972 22.66261418 155.658279 18.73903058 155.65942383 14.81518555 C155.6486295 13.65493457 155.63783518 12.49468359 155.62671375 11.29927349 C155.63084624 10.24557473 155.63497873 9.19187597 155.63923645 8.10624695 C155.63647107 7.18721934 155.63370569 6.26819174 155.63085651 5.32131481 C156 3 156 3 157.29989147 1.20039082 C160.10147716 -0.77771686 162.69504292 -0.30045064 166 0 C168.49433037 2.49433037 168.29034713 3.366369 168.40966797 6.81933594 C168.46684494 8.3344577 168.46684494 8.3344577 168.525177 9.88018799 C168.55554047 10.9870697 168.58590393 12.09395142 168.6171875 13.234375 C168.65472137 14.39233582 168.69225525 15.55029663 168.73092651 16.74334717 C169.13923684 30.57695173 169.15415428 44.41157775 169.125 58.25 C169.12301859 59.61722808 169.12111716 60.98445627 169.11929321 62.35168457 C169.09297634 79.81924413 169.02568775 97.28844088 168.73553467 114.75378418 C168.70368489 116.74044929 168.67649292 118.7271949 168.65411377 120.71398926 C168.62142802 123.42962535 168.56966269 126.14417654 168.51171875 128.859375 C168.50531876 129.65001343 168.49891876 130.44065186 168.49232483 131.25524902 C168.34902356 136.46909546 168.34902356 136.46909546 166.88339233 138.69848728 C164.08015561 140.63565575 161.818707 140.38084056 158.43334961 140.38768005 C157.76320045 140.39306559 157.09305128 140.39845113 156.40259457 140.40399987 C154.1523253 140.41833152 151.90263999 140.41116331 149.65234375 140.40405273 C148.04102097 140.40975357 146.42970223 140.41671671 144.81838989 140.42485046 C140.43828251 140.44282772 136.05837496 140.44160509 131.67824173 140.43590808 C128.02492668 140.43282316 124.37165041 140.43890081 120.71834087 140.44494683 C112.10223366 140.45900511 103.48622558 140.45741962 94.87011719 140.44604492 C85.97283347 140.4345588 77.075851 140.44864465 68.17860699 140.4754414 C60.54626939 140.49757024 52.91402654 140.50424226 45.28165913 140.49836498 C40.7202413 140.49498786 36.15901667 140.49746046 31.59762573 140.51461601 C27.30968845 140.53003865 23.02219892 140.52618217 18.73427963 140.50731087 C17.15845706 140.5036121 15.58260166 140.50677079 14.00680923 140.51719666 C11.85956734 140.53032141 9.71382654 140.5189378 7.56665039 140.50120544 C6.36391983 140.50099616 5.16118927 140.50078688 3.92201233 140.50057125 C1 140 1 140 -0.88702679 138.31025791 C-2.22753375 135.52769604 -2.37475867 133.62173713 -2.3742218 130.53466797 C-2.38123611 129.42428162 -2.38825043 128.31389526 -2.39547729 127.16986084 C-2.38783356 125.95622864 -2.38018982 124.74259644 -2.37231445 123.4921875 C-2.37596512 122.21055725 -2.37961578 120.928927 -2.38337708 119.60845947 C-2.39277899 116.09604282 -2.38336672 112.58390517 -2.37004495 109.07151031 C-2.35872441 105.39516664 -2.36283842 101.71883657 -2.36479187 98.04248047 C-2.36567466 91.86876877 -2.35459773 85.6951669 -2.33618164 79.52148438 C-2.31501422 72.38461543 -2.31150422 65.24790739 -2.3177436 58.11101341 C-2.32343912 51.2445806 -2.31778939 44.37820443 -2.30657005 37.51177979 C-2.30192655 34.5900162 -2.30104914 31.66828727 -2.3031559 28.746521 C-2.30538997 24.6668658 -2.29092707 20.58743582 -2.2746582 16.5078125 C-2.27713562 15.2941803 -2.27961304 14.0805481 -2.28216553 12.83013916 C-2.27508072 11.71975281 -2.26799591 10.60936646 -2.26069641 9.46533203 C-2.25864354 8.50080109 -2.25659067 7.53627014 -2.25447559 6.54251099 C-1.99065396 3.90662206 -1.34167753 2.26191506 0 0 Z " fill="#FAFCFB" transform="translate(43,133)"/>
<path d="M0 0 C2.83622125 1.37978331 5.01831334 2.96190972 7.3125 5.125 C7.3125 5.785 7.3125 6.445 7.3125 7.125 C9.2925 8.115 9.2925 8.115 11.3125 9.125 C11.3125 9.785 11.3125 10.445 11.3125 11.125 C12.3025 11.455 13.2925 11.785 14.3125 12.125 C14.3125 12.785 14.3125 13.445 14.3125 14.125 C14.88758301 14.37338623 15.46266602 14.62177246 16.05517578 14.87768555 C18.65014635 16.31157097 20.35940985 17.96159269 22.4296875 20.08203125 C23.20183594 20.86513672 23.97398437 21.64824219 24.76953125 22.45507812 C25.56746094 23.27427734 26.36539063 24.09347656 27.1875 24.9375 C33.29271951 31.26775952 33.29271951 31.26775952 39.8828125 37.07421875 C40.68460938 37.75097656 41.48640625 38.42773438 42.3125 39.125 C42.3125 39.785 42.3125 40.445 42.3125 41.125 C42.86663574 41.35243896 43.42077148 41.57987793 43.99169922 41.81420898 C46.98649705 43.50567433 49.03616236 45.64282362 51.4453125 48.09765625 C51.92322235 48.58076767 52.4011322 49.06387909 52.89352417 49.56163025 C54.41303614 51.09889041 55.9256639 52.64269326 57.4375 54.1875 C58.95734559 55.73497477 60.47863419 57.28095926 62.00289917 58.82408142 C63.38168742 60.22070801 64.75566065 61.62208323 66.12939453 63.02368164 C68.12930452 65.15759545 68.12930452 65.15759545 70.3125 66.125 C70.3125 66.785 70.3125 67.445 70.3125 68.125 C71.3025 68.455 72.2925 68.785 73.3125 69.125 C73.3125 69.785 73.3125 70.445 73.3125 71.125 C73.87710938 71.3629126 74.44171875 71.6008252 75.0234375 71.84594727 C77.81853622 73.40775637 79.6972216 75.3019047 81.9375 77.58984375 C82.80890625 78.47220703 83.6803125 79.35457031 84.578125 80.26367188 C85.48046875 81.18728516 86.3828125 82.11089844 87.3125 83.0625 C89.10186569 84.88637488 90.89344744 86.70807891 92.6875 88.52734375 C93.47898438 89.33679443 94.27046875 90.14624512 95.0859375 90.98022461 C97.23516235 93.14933394 97.23516235 93.14933394 99.6015625 94.78735352 C100.16617188 95.22877686 100.73078125 95.6702002 101.3125 96.125 C101.3125 96.785 101.3125 97.445 101.3125 98.125 C102.3025 98.455 103.2925 98.785 104.3125 99.125 C106.01876472 100.75110463 107.6795906 102.42524636 109.3125 104.125 C110.25609375 105.0221875 111.1996875 105.919375 112.171875 106.84375 C113.13546603 107.77078202 114.09900743 108.69786564 115.0625 109.625 C115.55621094 110.08519531 116.04992187 110.54539062 116.55859375 111.01953125 C119.51872898 113.89856689 121.11352016 115.93931685 121.3125 120.125 C120.3125 122.4375 120.3125 122.4375 118.3125 124.125 C114.89913433 124.6869054 112.4510786 124.90765708 109.51074219 122.88647461 C107.64023307 121.14326546 105.90736997 119.32935697 104.1875 117.4375 C103.59324219 116.81166016 102.99898437 116.18582031 102.38671875 115.54101562 C101.22090642 114.31215164 100.06176802 113.07691626 98.90991211 111.83496094 C96.76693712 109.54099841 94.54335287 107.33320462 92.3125 105.125 C91.66667969 104.46757813 91.02085937 103.81015625 90.35546875 103.1328125 C89.74316406 102.51148437 89.13085938 101.89015625 88.5 101.25 C87.89542969 100.63382812 87.29085937 100.01765625 86.66796875 99.3828125 C84.77544953 97.56875593 82.85711735 95.87703656 80.86328125 94.1796875 C74.08422368 88.28861647 67.8939572 81.7608442 61.58496094 75.37695312 C55.94333616 69.67438982 50.34318746 64.02317161 44.23046875 58.8203125 C39.37226668 54.52609723 34.92491128 49.77131836 30.37890625 45.15234375 C26.13482817 40.86699425 21.82414297 36.77821052 17.24609375 32.85351562 C15.19854309 31.02312943 13.29313415 29.10535633 11.390625 27.125 C10.44123047 26.13693359 10.44123047 26.13693359 9.47265625 25.12890625 C8.17615391 23.76877189 6.88731532 22.40129905 5.60546875 21.02734375 C4.66380859 20.05474609 4.66380859 20.05474609 3.703125 19.0625 C2.8682959 18.17884766 2.8682959 18.17884766 2.01660156 17.27734375 C0.37929681 15.91729205 0.37929681 15.91729205 -1.67822266 16.25 C-4.00107145 17.26155408 -5.40510117 18.42767271 -7.2265625 20.1875 C-7.88446777 20.8151123 -8.54237305 21.44272461 -9.22021484 22.08935547 C-9.91066895 22.76111816 -10.60112305 23.43288086 -11.3125 24.125 C-12.75452222 25.50332234 -14.19722871 26.88092916 -15.640625 28.2578125 C-16.33736328 28.92586914 -17.03410156 29.59392578 -17.75195312 30.28222656 C-21.64606937 33.98969243 -25.67121822 37.55118994 -29.6875 41.125 C-36.59481042 47.24036286 -36.59481042 47.24036286 -43.1875 53.6875 C-45.6875 56.125 -45.6875 56.125 -47.6875 56.125 C-47.6875 56.785 -47.6875 57.445 -47.6875 58.125 C-49.015625 59.46484375 -49.015625 59.46484375 -50.9375 61.0625 C-54.48329554 64.07860728 -57.94727956 67.16245678 -61.375 70.3125 C-61.87902344 70.77551514 -62.38304688 71.23853027 -62.90234375 71.71557617 C-65.62890967 74.22273874 -68.34918085 76.73662615 -71.06640625 79.25390625 C-71.62948486 79.77509033 -72.19256348 80.29627441 -72.77270508 80.83325195 C-73.83993836 81.82160481 -74.90626541 82.81093766 -75.97143555 83.80151367 C-78.79461354 86.41695096 -81.65584493 88.97748437 -84.5625 91.5 C-88.79119999 95.18475097 -92.86994535 99.01409464 -96.9375 102.875 C-103.06378585 108.66793293 -109.23077509 114.40924775 -115.46484375 120.0859375 C-116.90013901 121.40267586 -118.31020693 122.74770693 -119.6875 124.125 C-126.80150651 124.80252443 -126.80150651 124.80252443 -129.8125 122.5 C-131.09106631 119.02960572 -130.18192608 117.47527586 -128.6875 114.125 C-126.83567054 111.92033846 -124.73716453 110.06829095 -122.5625 108.1875 C-121.97210938 107.66027344 -121.38171875 107.13304688 -120.7734375 106.58984375 C-119.08829235 105.08947329 -117.39083224 103.60465698 -115.6875 102.125 C-114.96820313 101.49464844 -114.24890625 100.86429687 -113.5078125 100.21484375 C-112.29813344 99.15832148 -111.08460003 98.10619552 -109.8671875 97.05859375 C-108.00976125 95.41087691 -106.19254016 93.7346338 -104.3828125 92.03515625 C-103.795 91.48472656 -103.2071875 90.93429688 -102.6015625 90.3671875 C-101.42308354 89.26075529 -100.2484908 88.15016691 -99.078125 87.03515625 C-94.90862165 83.125 -94.90862165 83.125 -92.6875 83.125 C-92.4296875 82.53074219 -92.171875 81.93648438 -91.90625 81.32421875 C-90.58053053 78.93197497 -89.28371136 77.67718361 -87.1875 75.9375 C-83.87102839 73.13032202 -80.604162 70.28266417 -77.375 67.375 C-76.55386719 66.63765625 -75.73273438 65.9003125 -74.88671875 65.140625 C-73.5576293 63.92248973 -72.25759297 62.66992277 -71.01953125 61.359375 C-69.6875 60.125 -69.6875 60.125 -67.6875 60.125 C-67.6875 59.465 -67.6875 58.805 -67.6875 58.125 C-66.359375 56.78515625 -66.359375 56.78515625 -64.4375 55.1875 C-55.90598279 47.93046251 -47.77265423 40.20857747 -39.54638672 32.60888672 C-35.42182302 28.7994195 -31.2898053 24.9982024 -27.14550781 21.21020508 C-24.60313264 18.8858558 -22.06976531 16.5528246 -19.55078125 14.203125 C-4.5197149 0.2102193 -4.5197149 0.2102193 0 0 Z " fill="#FEFEFE" transform="translate(130.6875,0.875)"/>
<path d="M0 0 C2.875 0.9375 2.875 0.9375 4.875 3.9375 C5.12109566 6.38375378 5.12109566 6.38375378 5.11550903 9.34745789 C5.11825836 10.47066437 5.12100769 11.59387085 5.12384033 12.75111389 C5.11664978 13.98397629 5.10945923 15.21683868 5.10205078 16.48706055 C5.10234283 17.78472351 5.10263489 19.08238647 5.10293579 20.41937256 C5.10351028 23.97905397 5.09174046 27.53860096 5.07778788 31.0982511 C5.06529654 34.8178386 5.06411128 38.53742907 5.06173706 42.2570343 C5.05551759 49.30120005 5.03910047 56.34530382 5.01903808 63.38944227 C4.9966936 71.40869758 4.98568931 79.42795583 4.97564721 87.44723451 C4.95473463 103.94402597 4.9195496 120.44075508 4.875 136.9375 C5.57222042 136.93565641 6.26944084 136.93381283 6.98778915 136.93191338 C23.94663122 136.88775959 40.90545871 136.85465573 57.86434555 136.83387566 C66.06550917 136.82355967 74.26663443 136.80949319 82.46777344 136.78662109 C89.61523726 136.76669708 96.7626733 136.75378591 103.91016412 136.74932301 C107.69528913 136.74671395 111.48033469 136.74057485 115.26543427 136.72603989 C118.82764345 136.71247157 122.38974039 136.70827583 125.95197296 136.71128464 C127.88352387 136.71047153 129.81506254 136.69970594 131.74658203 136.68865967 C133.47131744 136.69278366 133.47131744 136.69278366 135.230896 136.69699097 C136.23011959 136.69514738 137.22934319 136.69330379 138.25884628 136.69140434 C141.00348341 136.94958614 142.61923004 137.35966794 144.875 138.9375 C145.875 142.3125 145.875 142.3125 145.875 145.9375 C143.79827109 148.73855273 142.58962612 149.80720807 139.1294632 150.43807125 C138.06906578 150.43828053 137.00866837 150.43848982 135.9161377 150.43870544 C134.69636734 150.44853958 133.47659698 150.45837372 132.21986389 150.46850586 C130.87118251 150.45913418 129.52250391 150.44935488 128.17382812 150.43920898 C126.75116949 150.44299267 125.32851454 150.44849313 123.90586853 150.45558167 C120.04423316 150.46954731 116.18304279 150.45835904 112.32143211 150.44187045 C108.28073143 150.42802318 104.24005667 150.43447966 100.19934082 150.43800354 C93.41358262 150.44070593 86.62800128 150.42722771 79.84228516 150.40405273 C71.99646235 150.37744274 64.15093526 150.37569575 56.3050828 150.3874411 C48.75839866 150.39821947 41.21182152 150.39203137 33.66514587 150.37788582 C30.45309419 150.37212651 27.24112082 150.37220825 24.02906799 150.37695122 C20.246739 150.38172279 16.46473389 150.37161219 12.68246651 150.34999657 C11.29412999 150.34443093 9.90576234 150.34396139 8.51742363 150.34894943 C6.62289597 150.35490261 4.72833686 150.34056334 2.8338623 150.32518005 C1.77346489 150.32275016 0.71306747 150.32032026 -0.3794632 150.31781673 C-3.58665817 149.87355027 -4.95186153 149.34195097 -7.125 146.9375 C-7.62836456 144.34624577 -7.62836456 144.34624577 -7.63293457 141.17481995 C-7.64421387 139.97325256 -7.65549316 138.77168518 -7.66711426 137.53370667 C-7.65933681 136.20028446 -7.65114412 134.86686463 -7.64257812 133.53344727 C-7.64799767 132.13063835 -7.65511939 130.72783513 -7.66381836 129.32504272 C-7.68207672 125.51294836 -7.67497368 121.7012863 -7.66230202 117.88918424 C-7.65218521 113.90185445 -7.6615642 109.91456205 -7.66784668 105.92723083 C-7.67512781 99.22965846 -7.66552416 92.53226241 -7.64648438 85.8347168 C-7.62472349 78.09053834 -7.63175921 70.34678124 -7.65379 62.60261303 C-7.67194143 55.95622385 -7.67450335 49.30996153 -7.66403532 42.66355556 C-7.65779778 38.6928806 -7.65697157 34.72240367 -7.67018127 30.75174141 C-7.68173526 27.01777936 -7.67372303 23.28436037 -7.65060425 19.550457 C-7.6427903 17.52591957 -7.65467755 15.50133621 -7.66711426 13.4768219 C-7.65583496 12.27243469 -7.64455566 11.06804749 -7.63293457 9.8271637 C-7.63142647 8.78021615 -7.62991837 7.7332686 -7.62836456 6.65459538 C-6.77812236 2.06510032 -4.68160366 -0.09363207 0 0 Z " fill="#F8FAFA" transform="translate(21.125,152.0625)"/>
<path d="M0 0 C4.892384 1.53938482 7.62344222 4.63012708 11.17904663 8.22868347 C11.94070129 8.97997025 12.70235596 9.73125702 13.48709106 10.50531006 C15.99964316 12.99077093 18.49336753 15.49418353 20.98617554 17.99943542 C22.72572043 19.73307317 24.46593371 21.46604048 26.20678711 23.19836426 C29.85139656 26.83108953 33.48655096 30.47296407 37.11557007 34.1212616 C41.77118638 38.79977738 46.4512003 43.45298608 51.13879967 48.09942913 C54.73704568 51.67212596 58.3211362 55.25875981 61.90117264 58.84969521 C63.62144896 60.57146042 65.3463367 62.28863077 67.07584763 64.00111961 C69.48952292 66.39487825 71.88328565 68.80692952 74.27279663 71.22477722 C75.35269363 72.28409958 75.35269363 72.28409958 76.45440674 73.36482239 C81.20535487 78.22928411 81.20535487 78.22928411 81.88085938 82.41821289 C81.33773804 85.05021667 81.33773804 85.05021667 79.71273804 86.98771667 C76.45429731 88.44544016 74.76585103 87.97455978 71.33773804 87.05021667 C68.74813843 85.04411316 68.74813843 85.04411316 66.18539429 82.42131042 C65.7221727 81.95338577 65.25895111 81.48546112 64.7816925 81.00335693 C63.30907516 79.50950625 61.85496095 77.9989759 60.40023804 76.48771667 C59.428043 75.49899157 58.45474412 74.51135058 57.48031616 73.52482605 C53.60540047 69.57793908 49.79948134 65.60185681 46.20419312 61.39689636 C41.95596362 56.51444732 37.35337574 51.99935195 32.7387886 47.46779823 C31.15492202 45.91095599 29.57579354 44.34944978 27.99798584 42.78646851 C23.51801766 38.34889971 19.03510737 33.91442284 14.53646851 29.49577332 C11.77060698 26.77842299 9.01460058 24.0514108 6.26478195 21.31783104 C5.21982576 20.28275632 4.17122801 19.25134422 3.11891556 18.22374916 C1.65207061 16.79065354 0.19810899 15.34557355 -1.25357056 13.8971405 C-2.08295135 13.07965836 -2.91233215 12.26217621 -3.7668457 11.41992188 C-5.82561515 8.84598771 -6.48532015 7.32321445 -6.66226196 4.05021667 C-4.68099567 1.03869192 -3.64931272 0.06883483 0 0 Z " fill="#FEFEFE" transform="translate(129.66226196289063,31.949783325195313)"/>
<path d="M0 0 C0.66 0 1.32 0 2 0 C2.00423194 0.66906341 2.00846388 1.33812681 2.01282406 2.02746487 C2.11599137 18.28430916 2.22460794 34.54110688 2.33933926 50.7978735 C2.39468942 58.65942312 2.4481743 66.52097727 2.49731445 74.38256836 C2.54013439 81.23228322 2.58640675 88.08196442 2.63687855 94.93162733 C2.66349722 98.56067418 2.68835064 102.18971427 2.70907402 105.81879997 C2.7322355 109.86354423 2.76310258 113.90819354 2.79467773 117.95288086 C2.8004332 119.16488159 2.80618866 120.37688232 2.81211853 121.62561035 C2.82680176 123.26843239 2.82680176 123.26843239 2.84178162 124.94444275 C2.84823417 125.90218566 2.85468672 126.85992857 2.8613348 127.84669399 C2.76085183 129.98091988 2.76085183 129.98091988 4 131 C6.07528211 131.10910918 8.15431951 131.14691549 10.23243713 131.15821838 C10.89074349 131.16315636 11.54904984 131.16809434 12.22730488 131.17318195 C14.44914133 131.18862849 16.67094874 131.19693679 18.89282227 131.20532227 C20.47915913 131.21489518 22.0654934 131.22490491 23.65182495 131.23532104 C27.97185943 131.26243979 32.29190491 131.28341149 36.61197782 131.30332303 C41.12170513 131.32513975 45.63139825 131.35254947 50.14109802 131.37937927 C58.68691896 131.42936469 67.23275881 131.47428174 75.77861685 131.51740164 C85.50520061 131.56672414 95.23175008 131.6216607 104.95830071 131.67708123 C124.97216855 131.79099102 144.98606911 131.89781037 165 132 C165.33 132.66 165.66 133.32 166 134 C144.79929455 134.09336116 123.59862289 134.16393885 102.39775372 134.20724869 C92.5542432 134.22789097 82.71086027 134.25604333 72.86743164 134.30175781 C64.28983264 134.34157466 55.71232602 134.36742068 47.13463718 134.37635398 C42.59101703 134.38157749 38.04766119 134.39388899 33.5041256 134.42292023 C29.23023775 134.45000807 24.95672386 134.45845854 20.68275833 134.45243073 C19.11175443 134.45353395 17.54073842 134.46152743 15.96980858 134.4768219 C13.82903325 134.49664733 11.68968033 134.49196812 9.5488739 134.48101807 C8.34962123 134.48470524 7.15036856 134.48839241 5.91477489 134.49219131 C3 134 3 134 1.1132431 132.30845642 C-0.22300537 129.53756894 -0.36966561 127.65785738 -0.36076355 124.5836792 C-0.36488754 123.48434052 -0.36901154 122.38500183 -0.3732605 121.25234985 C-0.36247467 120.05113495 -0.35168884 118.84992004 -0.34057617 117.61230469 C-0.34101425 116.34375641 -0.34145233 115.07520813 -0.34190369 113.76821899 C-0.34276426 110.2932324 -0.3251288 106.81855661 -0.30418181 103.34364223 C-0.28542517 99.71082066 -0.28366538 96.07799192 -0.28010559 92.44512939 C-0.27078213 85.56741306 -0.24616434 78.68983981 -0.21605712 71.81218648 C-0.18252243 63.98154949 -0.16602946 56.15090567 -0.15097082 48.32021475 C-0.11961499 32.21339274 -0.06684872 16.10671463 0 0 Z " fill="#D8E4DF" transform="translate(41,139)"/>
<path d="M0 0 C0.33 0 0.66 0 1 0 C1.10792837 2.60527105 1.18724878 5.20608311 1.25 7.8125 C1.28351563 8.55048828 1.31703125 9.28847656 1.3515625 10.04882812 C1.390625 12.20703125 1.390625 12.20703125 1 16 C-1.015625 18.01171875 -1.015625 18.01171875 -3 19 C-3 16 -3 16 -1 14 C-0.79467193 11.69421712 -0.79467193 11.69421712 -0.9375 9.125 C-1.04977176 5.85447484 -0.94306291 3.14354304 0 0 Z " fill="#F3F7F6" transform="translate(210,254)"/>
<path d="M0 0 C0.99 0.33 1.98 0.66 3 1 C1.02 1.99 1.02 1.99 -1 3 C-1 3.66 -1 4.32 -1 5 C-2.53125 6.2890625 -2.53125 6.2890625 -4.5 7.625 C-5.1496875 8.07101563 -5.799375 8.51703125 -6.46875 8.9765625 C-6.9740625 9.31429687 -7.479375 9.65203125 -8 10 C-7.4346089 6.49304707 -6.31277274 4.97267387 -3.625 2.6875 C-3.01914063 2.15511719 -2.41328125 1.62273437 -1.7890625 1.07421875 C-0.90347656 0.54248047 -0.90347656 0.54248047 0 0 Z " fill="#F4F7F6" transform="translate(13,105)"/>
<path d="M0 0 C0.721875 0.804375 1.44375 1.60875 2.1875 2.4375 C5.02515689 5.02292072 6.27166147 5.68042813 10 6 C10 6.33 10 6.66 10 7 C6.70985003 7.22432841 4.57722754 7.30380397 1.625 5.75 C0 4 0 4 0 0 Z " fill="#EAF5F4" transform="translate(14,295)"/>
<path d="M0 0 C2.95409701 1.37154504 5.44008376 2.98863724 8 5 C7.67 5.99 7.34 6.98 7 8 C1.125 3.375 1.125 3.375 0 0 Z " fill="#F6F8F8" transform="translate(224,92)"/>
</svg>
